HIERARCHY
ROOT joint_Root
{
	OFFSET 0.0 0.0 0.0
	CHANNELS 6 Xposition Yposition Zposition Zrotation Xrotation Yrotation 
	JOINT Hips
	{
		OFFSET -17.1583 93.1646 452.98
		CHANNELS 6 Xposition Yposition Zposition Zrotation Xrotation Yrotation 
		JOINT Spine
		{
			OFFSET 15.7357 0.0 0.0
			CHANNELS 6 Xposition Yposition Zposition Zrotation Xrotation Yrotation 
			JOINT Chest
			{
				OFFSET 8.98455 -0.406207 0.0
				CHANNELS 6 Xposition Yposition Zposition Zrotation Xrotation Yrotation 
				JOINT Neck
				{
					OFFSET 16.3773 0.0 0.0
					CHANNELS 6 Xposition Yposition Zposition Zrotation Xrotation Yrotation 
					JOINT Head
					{
						OFFSET 6.45672 0.0 0.0
						CHANNELS 6 Xposition Yposition Zposition Zrotation Xrotation Yrotation 
						End Site
						{
							OFFSET 0.0 0.0 0.0
						}
					}
				}
				JOINT Shoulder_L
				{
					OFFSET 12.9942 -0.242716 4.98039
					CHANNELS 6 Xposition Yposition Zposition Zrotation Xrotation Yrotation 
					JOINT UpperArm_L
					{
						OFFSET 5.34809 0.0 0.0
						CHANNELS 6 Xposition Yposition Zposition Zrotation Xrotation Yrotation 
						JOINT LowerArm_L
						{
							OFFSET 24.3286 1.87007e-05 0.0
							CHANNELS 6 Xposition Yposition Zposition Zrotation Xrotation Yrotation 
							JOINT Hand_L
							{
								OFFSET 22.2916 0.0 0.0
								CHANNELS 6 Xposition Yposition Zposition Zrotation Xrotation Yrotation 
								End Site
								{
									OFFSET 0.0 0.0 0.0
								}
							}
						}
					}
				}
				JOINT Shoulder_R
				{
					OFFSET 12.9945 -0.242716 -4.98039
					CHANNELS 6 Xposition Yposition Zposition Zrotation Xrotation Yrotation 
					JOINT UpperArm_R
					{
						OFFSET -5.34813 0.0 0.0
						CHANNELS 6 Xposition Yposition Zposition Zrotation Xrotation Yrotation 
						JOINT LowerArm_R
						{
							OFFSET -24.3289 0.000322201 0.0
							CHANNELS 6 Xposition Yposition Zposition Zrotation Xrotation Yrotation 
							JOINT Hand_R
							{
								OFFSET -22.2915 -0.000108084 0.0
								CHANNELS 6 Xposition Yposition Zposition Zrotation Xrotation Yrotation 
								End Site
								{
									OFFSET 0.0 0.0 0.0
								}
							}
						}
					}
				}
			}
		}
		JOINT UpperLeg_L
		{
			OFFSET -2.19248 -6.46944 0.0
			CHANNELS 6 Xposition Yposition Zposition Zrotation Xrotation Yrotation 
			JOINT LowerLeg_L
			{
				OFFSET 39.0811 0.0 -1.23785e-05
				CHANNELS 6 Xposition Yposition Zposition Zrotation Xrotation Yrotation 
				JOINT Foot_L
				{
					OFFSET 40.9854 0.0 -1.26872e-05
					CHANNELS 6 Xposition Yposition Zposition Zrotation Xrotation Yrotation 
					JOINT Toes_L
					{
						OFFSET 11.7543 0.0 0.0
						CHANNELS 6 Xposition Yposition Zposition Zrotation Xrotation Yrotation 
						End Site
						{
							OFFSET 0.0 0.0 0.0
						}
					}
				}
			}
		}
		JOINT UpperLeg_R
		{
			OFFSET -2.19251 6.46944 0.0
			CHANNELS 6 Xposition Yposition Zposition Zrotation Xrotation Yrotation 
			JOINT LowerLeg_R
			{
				OFFSET -39.0811 -0.00228153 -0.0401928
				CHANNELS 6 Xposition Yposition Zposition Zrotation Xrotation Yrotation 
				JOINT Foot_R
				{
					OFFSET -40.9854 0.0 0.0
					CHANNELS 6 Xposition Yposition Zposition Zrotation Xrotation Yrotation 
					JOINT Toes_R
					{
						OFFSET -11.7543 0.0 0.0
						CHANNELS 6 Xposition Yposition Zposition Zrotation Xrotation Yrotation 
						End Site
						{
							OFFSET 0.0 0.0 0.0
						}
					}
				}
			}
		}
	}
}
MOTION
Frames:	6
Frame Time:	0.0333333
0.000000 0.000000 0.000000 0.000000 0.000000 -0.000000 119.245000 91.580200 162.125000 88.685600 -82.392800 1.839710 15.735700 0.000005 -0.000001 66.066900 84.440500 -65.345900 8.984550 -0.406207 -0.000000 2.433080 -4.540650 1.537620 16.377300 -0.000001 -0.000001 2.945710 1.825020 -2.506090 6.456720 -0.000001 -0.000000 -7.984580 1.322330 3.801140 12.994200 -0.242716 4.980390 -92.875400 8.331180 -70.881300 5.348090 -0.000007 -0.000001 -68.307400 -4.219590 -12.646300 24.328600 0.000019 0.000005 21.772600 22.572400 -46.138400 22.291600 -0.000001 0.000005 50.805900 4.473910 17.029200 12.994500 -0.242716 -4.980390 88.568400 4.142530 -70.916400 -5.348130 -0.000001 -0.000004 -69.234300 -6.578740 10.299000 -24.328900 0.000322 -0.000009 0.214967 2.030310 -6.074140 -22.291500 -0.000108 -0.000004 45.388000 5.542810 -8.371250 -2.192480 -6.469440 -0.000000 -177.665000 -10.662700 6.212860 39.081100 -0.000007 -0.000012 0.140479 -0.440360 17.693400 40.985400 -0.000006 -0.000013 3.609310 16.971100 -73.877500 11.754300 -0.000000 0.000003 0.000001 0.167610 -9.778640 -2.192510 6.469440 -0.000001 -174.974000 -8.560240 156.231000 -39.081100 -0.002282 -0.040193 -0.053192 0.083037 34.224700 -40.985400 0.000008 0.000006 3.740290 -16.590200 -61.016500 -11.754300 -0.000006 -0.000006 -0.003455 0.213316 -7.916910
0.000000 0.000000 0.000000 0.000000 0.000000 -0.000000 116.519000 91.184600 163.084000 90.270700 -82.912000 3.127700 15.735700 0.000005 -0.000001 65.547300 84.356300 -65.024000 8.984550 -0.406207 -0.000000 2.538370 -4.692310 1.150000 16.377300 -0.000001 -0.000001 2.631890 1.945680 -2.325600 6.456720 -0.000001 -0.000000 -8.014300 1.416750 4.211960 12.994200 -0.242716 4.980390 -92.754000 8.096330 -71.142200 5.348090 -0.000007 -0.000001 -68.416000 -4.428470 -15.596200 24.328600 0.000019 0.000005 23.883400 21.204300 -50.756200 22.291600 -0.000001 0.000005 50.819900 4.452100 17.384800 12.994500 -0.242716 -4.980390 88.667900 3.884260 -71.054600 -5.348130 -0.000001 -0.000004 -68.767400 -7.050190 11.436200 -24.328900 0.000322 -0.000009 0.194172 1.906330 -5.847870 -22.291500 -0.000108 -0.000004 45.791800 5.544780 -8.462260 -2.192480 -6.469440 -0.000000 -177.246000 -11.873600 8.758610 39.081100 -0.000007 -0.000012 0.050443 -0.175081 16.072500 40.985400 -0.000006 -0.000013 0.158174 18.857800 -72.699300 11.754300 -0.000000 0.000003 0.773513 1.313370 -11.014900 -2.192510 6.469440 -0.000001 -175.122000 -7.671540 157.681000 -39.081100 -0.002282 -0.040193 -0.020417 0.060303 21.485200 -40.985400 0.000008 0.000006 3.807170 -13.541000 -59.936400 -11.754300 -0.000006 -0.000006 -0.003681 0.215744 -7.818070
0.000000 0.000000 0.000000 0.000000 0.000000 -0.000000 113.535000 90.611600 164.002000 90.548300 -83.402000 3.006430 15.735700 0.000005 -0.000001 64.832700 84.280100 -64.397400 8.984550 -0.406207 -0.000000 2.615060 -4.880290 0.981500 16.377300 -0.000001 -0.000001 2.162590 2.063690 -2.160240 6.456720 -0.000001 -0.000000 -8.213470 1.741000 4.383610 12.994200 -0.242716 4.980390 -92.660700 7.926770 -71.377600 5.348090 -0.000007 -0.000001 -68.727300 -4.786240 -17.880100 24.328600 0.000019 0.000005 25.736100 19.671400 -55.072100 22.291600 -0.000001 0.000005 50.894200 4.422870 17.857100 12.994500 -0.242716 -4.980390 88.838500 3.412240 -71.189100 -5.348130 -0.000001 -0.000004 -68.772000 -7.374880 11.851300 -24.328900 0.000322 -0.000009 0.192668 2.058970 -5.375670 -22.291500 -0.000108 -0.000004 46.314100 5.541030 -8.289750 -2.192480 -6.469440 -0.000000 -176.802000 -12.171400 11.090100 39.081100 -0.000007 -0.000012 -0.012167 0.045920 14.840100 40.985400 -0.000006 -0.000013 -3.502920 19.930500 -71.301800 11.754300 -0.000000 0.000003 3.419450 4.995580 -14.721900 -2.192510 6.469440 -0.000001 -174.253000 -5.289970 159.307000 -39.081100 -0.002282 -0.040193 -0.004003 0.041431 10.048400 -40.985400 0.000008 0.000006 3.325580 -10.158000 -58.365100 -11.754300 -0.000006 -0.000006 -0.004694 0.226141 -7.394570
0.000000 0.000000 0.000000 0.000000 0.000000 -0.000000 110.228000 89.942600 164.868000 89.208900 -83.383700 1.045680 15.735700 0.000005 -0.000001 62.292700 84.275400 -61.839600 8.984550 -0.406207 -0.000000 2.401350 -5.340410 1.017660 16.377300 -0.000001 -0.000001 1.776200 2.146880 -2.049180 6.456720 -0.000001 -0.000000 -8.414670 2.096990 4.448520 12.994200 -0.242716 4.980390 -92.611000 7.919900 -71.687900 5.348090 -0.000007 -0.000001 -68.870300 -4.861160 -19.244600 24.328600 0.000019 0.000005 27.697700 18.481500 -58.874200 22.291600 -0.000001 0.000005 51.163600 4.396900 18.272600 12.994500 -0.242716 -4.980390 88.898900 3.214760 -71.082300 -5.348130 -0.000001 -0.000004 -68.535400 -7.735920 11.861700 -24.328900 0.000322 -0.000009 0.179184 2.057620 -5.006720 -22.291500 -0.000108 -0.000004 46.434900 5.536280 -8.074680 -2.192480 -6.469440 -0.000000 -176.477000 -12.096700 11.446700 39.081100 -0.000007 -0.000012 -0.025609 0.082146 17.314700 40.985400 -0.000006 -0.000013 -3.667340 20.586800 -72.043200 11.754300 -0.000000 0.000003 3.774230 5.136820 -16.490700 -2.192510 6.469440 -0.000001 -172.046000 -0.105178 158.766000 -39.081100 -0.002282 -0.040193 0.003764 -0.004320 5.519520 -40.985400 0.000008 0.000006 0.782098 -4.168970 -59.593700 -11.754300 -0.000006 -0.000006 -0.004670 0.225899 -7.404410
0.000000 0.000000 0.000000 0.000000 0.000000 -0.000000 106.497000 89.361600 165.679000 87.921400 -82.852300 -0.989599 15.735700 0.000005 -0.000001 58.095200 84.320600 -57.545000 8.984550 -0.406207 -0.000000 1.916600 -6.027580 1.200960 16.377300 -0.000001 -0.000001 1.268810 2.075380 -2.015360 6.456720 -0.000001 -0.000000 -8.297070 2.489880 4.367800 12.994200 -0.242716 4.980390 -92.545900 7.969430 -72.218800 5.348090 -0.000007 -0.000001 -69.032300 -4.608020 -19.541500 24.328600 0.000019 0.000005 29.727700 17.851900 -61.770800 22.291600 -0.000001 0.000005 51.534300 4.372010 18.667500 12.994500 -0.242716 -4.980390 88.836300 3.370720 -70.941400 -5.348130 -0.000001 -0.000004 -67.868700 -8.453920 11.912400 -24.328900 0.000322 -0.000009 0.149585 1.662990 -5.176080 -22.291500 -0.000108 -0.000004 46.601800 5.538020 -8.153180 -2.192480 -6.469440 -0.000000 -175.723000 -12.274500 11.757800 39.081100 -0.000007 -0.000012 -0.032845 0.090852 19.875900 40.985400 -0.000006 -0.000013 -3.785200 22.255600 -71.611400 11.754300 -0.000000 0.000003 2.926300 3.544730 -18.416700 -2.192510 6.469440 -0.000001 -170.706000 2.733140 157.943000 -39.081100 -0.002282 -0.040193 0.004781 -0.016990 4.823330 -40.985400 0.000008 0.000006 -1.541410 -1.343020 -61.140300 -11.754300 -0.000006 -0.000006 -0.004412 0.223322 -7.509410
0.000000 0.000000 0.000000 0.000000 0.000000 -0.000000 102.368000 88.979800 166.353000 81.504400 -82.285100 -8.645720 15.735700 0.000005 -0.000001 52.992300 84.490600 -52.037800 8.984550 -0.406207 -0.000000 1.098840 -6.685190 1.973390 16.377300 -0.000001 -0.000001 0.943546 2.174950 -2.040790 6.456720 -0.000001 -0.000000 -8.637900 2.909700 4.109090 12.994200 -0.242716 4.980390 -92.485900 8.018550 -72.712700 5.348090 -0.000007 -0.000001 -69.328000 -4.042390 -18.930800 24.328600 0.000019 0.000005 30.862400 17.564000 -63.207400 22.291600 -0.000001 0.000005 51.632500 4.368680 18.720000 12.994500 -0.242716 -4.980390 88.749900 3.570300 -70.688400 -5.348130 -0.000001 -0.000004 -67.464500 -8.961060 11.378800 -24.328900 0.000322 -0.000009 0.147302 1.559310 -5.434970 -22.291500 -0.000108 -0.000004 47.040500 5.540360 -8.259280 -2.192480 -6.469440 -0.000000 -173.944000 -12.830800 11.676900 39.081100 -0.000007 -0.000012 -0.030572 0.075274 22.104000 40.985400 -0.000006 -0.000013 -4.759140 24.367900 -69.120200 11.754300 -0.000000 0.000003 0.826608 0.753377 -21.414000 -2.192510 6.469440 -0.000001 -168.938000 3.806580 156.477000 -39.081100 -0.002282 -0.040193 0.001306 0.015578 7.449320 -40.985400 0.000008 0.000006 0.128279 -0.759932 -58.699200 -11.754300 -0.000006 -0.000006 -0.003208 0.210596 -8.027620
